# Blender 5.0.1
# www.blender.org
mtllib UVforDummies.mtl
o Cube
v 1.000000 2.000000 0.000000
v 1.000000 2.000000 2.000000
v 1.000000 0.000000 2.000000
v -1.000000 2.000000 0.000000
v -1.000000 2.000000 2.000000
v -1.000000 0.000000 2.000000
v -1.000000 0.390181 1.961571
v -1.000000 1.111140 1.662939
v -1.000000 0.765367 1.847759
v -1.000000 1.662939 1.111140
v -1.000000 1.961571 0.390181
v -1.000000 1.847759 0.765367
v -1.000000 1.414214 1.414214
v 1.000000 1.662939 1.111140
v 1.000000 1.414214 1.414214
v 1.000000 1.961571 0.390181
v 1.000000 1.847759 0.765367
v 1.000000 0.390181 1.961571
v 1.000000 1.111140 1.662939
v 1.000000 0.765367 1.847759
vn -0.0000 1.0000 -0.0000
vn -0.0000 -0.0000 1.0000
vn -1.0000 -0.0000 -0.0000
vn 1.0000 -0.0000 -0.0000
vn -0.0000 -0.0980 -0.9952
vn -0.0000 -0.2903 -0.9569
vn -0.0000 -0.4714 -0.8819
vn -0.0000 -0.6344 -0.7730
vn -0.0000 -0.7730 -0.6344
vn -0.0000 -0.8819 -0.4714
vn -0.0000 -0.9569 -0.2903
vn -0.0000 -0.9952 -0.0980
vt 0.005562 0.006730
vt 0.993270 0.006730
vt 0.993270 0.994437
vt 0.005562 0.994438
vt 0.993655 0.005153
vt 0.993655 0.997713
vt 0.001094 0.997713
vt 0.001094 0.005153
vt 0.999977 0.998205
vt 0.001750 0.998205
vt 0.196495 0.979025
vt 0.383755 0.922220
vt 0.556335 0.829974
vt 0.707603 0.705832
vt 0.831745 0.554564
vt 0.923991 0.381984
vt 0.980796 0.194723
vt 0.999977 -0.000021
vt 0.999235 0.998947
vt 0.001009 0.998947
vt 0.001009 0.000720
vt 0.020190 0.195465
vt 0.076995 0.382725
vt 0.169241 0.555305
vt 0.293383 0.706573
vt 0.444651 0.830715
vt 0.617231 0.922961
vt 0.804491 0.979766
vt 1.000257 0.999623
vt 0.000204 0.999623
vt 0.000204 0.874786
vt 1.000257 0.874786
vt 0.000204 0.749949
vt 1.000257 0.749949
vt 0.000204 0.625112
vt 1.000257 0.625112
vt 0.000204 0.500274
vt 1.000257 0.500274
vt 0.000204 0.375437
vt 1.000257 0.375437
vt 0.000204 0.250600
vt 1.000257 0.250600
vt 0.000204 0.125763
vt 1.000257 0.125763
vt 0.000204 0.000926
vt 1.000257 0.000926
s 0
usemtl Material
f 1/1/1 4/2/1 5/3/1 2/4/1
f 3/5/2 2/6/2 5/7/2 6/8/2
f 5/9/3 4/10/3 11/11/3 12/12/3 10/13/3 13/14/3 8/15/3 9/16/3 7/17/3 6/18/3
f 1/19/4 2/20/4 3/21/4 18/22/4 20/23/4 19/24/4 15/25/4 14/26/4 17/27/4 16/28/4
f 3/29/5 6/30/5 7/31/5 18/32/5
f 9/33/6 20/34/6 18/32/6 7/31/6
f 8/35/7 19/36/7 20/34/7 9/33/7
f 13/37/8 15/38/8 19/36/8 8/35/8
f 10/39/9 14/40/9 15/38/9 13/37/9
f 12/41/10 17/42/10 14/40/10 10/39/10
f 11/43/11 16/44/11 17/42/11 12/41/11
f 4/45/12 1/46/12 16/44/12 11/43/12
