# Blender 5.0.1
# www.blender.org
mtllib Slope.mtl
o Cube
v 1.000000 0.000000 -1.000000
v 1.000000 0.000000 1.000000
v -1.000000 1.000000 -1.000000
v -1.000000 0.000000 -1.000000
v -1.000000 1.000000 1.000000
v -1.000000 0.000000 1.000000
vn 0.4472 0.8944 -0.0000
vn -0.0000 -0.0000 1.0000
vn -1.0000 -0.0000 -0.0000
vn -0.0000 -1.0000 -0.0000
vn -0.0000 -0.0000 -1.0000
vt 1.000000 0.000000
vt 1.000000 1.000000
vt 0.000000 1.000000
vt 0.000197 0.000197
vt 0.000000 0.500000
vt 0.000000 0.000000
vt 1.000000 0.500000
vt 0.000000 0.999803
s 1
usemtl Material
f 1/1/1 3/2/1 5/3/1 2/4/1
f 2/1/2 5/5/2 6/6/2
f 6/1/3 5/7/3 3/5/3 4/6/3
f 4/8/4 1/6/4 2/1/4 6/2/4
f 4/1/5 3/7/5 1/6/5
